<svg version="1.1" id="Layer_1" xmlns="http://www.w3.org/2000/svg" xmlns:xlink="http://www.w3.org/1999/xlink" x="0px" y="0px"
	 width="100%" viewBox="0 0 2000 2000" enable-background="new 0 0 2000 2000" xml:space="preserve">
<path fill="#537439" opacity="1.000000" stroke="none" 
	d="
M2001.000000,1880.000000 
	C2001.000000,1920.295776 2001.000000,1960.591553 2001.000000,2001.000000 
	C1884.979126,2001.000000 1768.958130,2001.000000 1652.399658,2000.619385 
	C1642.487793,1963.596558 1633.040894,1926.972778 1623.827881,1890.290161 
	C1622.641724,1885.567261 1620.568848,1883.923096 1615.636475,1883.930908 
	C1528.474487,1884.069458 1441.312500,1884.067871 1354.150513,1883.934082 
	C1349.248047,1883.926636 1347.136475,1885.478027 1345.986572,1890.276367 
	C1337.132324,1927.218140 1328.027222,1964.099731 1319.000000,2001.000000 
	C1213.312500,2001.000000 1107.624878,2001.000000 1001.468628,2000.533936 
	C1001.000000,1960.613647 1000.982971,1921.159180 1001.005859,1881.704834 
	C1001.022095,1853.738281 1001.092224,1825.771729 1001.332642,1797.530518 
	C1002.299377,1795.234985 1003.111877,1793.228394 1003.838379,1791.191162 
	C1026.604126,1727.346680 1049.360107,1663.498535 1072.120850,1599.652222 
	C1132.685791,1429.761108 1193.261963,1259.873901 1253.809448,1089.976685 
	C1264.710571,1059.387329 1275.495972,1028.756714 1286.781250,998.108521 
	C1373.175537,998.047852 1459.123535,998.025696 1545.071411,997.992920 
	C1548.067383,997.991760 1551.063477,997.884888 1554.522095,997.878662 
	C1584.380615,997.891418 1613.776611,997.852783 1643.622070,997.860168 
	C1660.123169,997.987488 1676.174683,998.068787 1692.335205,998.481689 
	C1705.137939,1035.146606 1717.825317,1071.482300 1730.527100,1107.812988 
	C1816.031006,1352.378174 1901.531372,1596.944702 1987.062866,1841.500244 
	C1991.568481,1854.382568 1996.348022,1867.168945 2001.000000,1880.000000 
M1532.711182,1542.790649 
	C1526.978638,1520.529907 1521.157715,1498.291626 1515.531006,1476.004150 
	C1501.693237,1421.192993 1491.070923,1365.825684 1486.862671,1309.348877 
	C1486.763184,1308.013306 1485.048340,1306.797974 1484.086792,1305.526611 
	C1483.022217,1306.725708 1481.179932,1307.833008 1481.025879,1309.139282 
	C1480.307983,1315.231812 1480.153442,1321.387695 1479.621948,1327.505737 
	C1476.082642,1368.252075 1469.356079,1408.518555 1459.343262,1448.125366 
	C1443.503540,1510.780518 1426.813843,1573.220703 1410.477539,1635.750244 
	C1408.607300,1642.909302 1408.633057,1642.992554 1416.097046,1642.994263 
	C1461.250610,1643.004639 1506.404297,1643.004028 1551.557861,1642.995605 
	C1559.697876,1642.994019 1559.801880,1642.839722 1557.610962,1634.743774 
	C1549.386475,1604.353149 1541.153931,1573.964722 1532.711182,1542.790649 
z"/>
<path fill="#537439" opacity="1.000000" stroke="none" 
	d="
M342.000000,1.000000 
	C561.360168,1.000000 780.720398,1.000000 1000.540283,1.468657 
	C1001.000000,99.463898 1000.998596,196.990479 1001.007019,294.517059 
	C1001.007263,297.344299 1001.110962,300.171539 1001.110657,303.464935 
	C1001.039734,413.791351 1001.024170,523.651611 1001.015747,633.511841 
	C1001.015686,634.341614 1001.114014,635.171448 1001.117920,636.467651 
	C1001.052185,714.798096 1001.034485,792.662109 1001.023987,870.526184 
	C1001.023865,871.356018 1001.117859,872.185913 1001.114136,873.481018 
	C1001.036377,915.263245 1001.012329,956.580200 1001.014771,997.938721 
	C1001.041199,997.980286 1001.044617,998.078735 1000.576050,998.055725 
	C901.927246,998.021790 803.747131,998.012146 705.566956,997.994324 
	C702.572937,997.993774 699.578857,997.909119 696.592651,997.405151 
	C696.608887,891.474670 696.619263,786.002625 696.622009,680.530640 
	C696.622253,672.011230 696.598328,672.001831 688.039307,672.001648 
	C577.568481,671.999390 467.097687,672.000122 356.626862,672.000000 
	C342.212280,672.000000 342.212250,672.000000 342.212250,657.318542 
	C342.212219,441.875427 342.213196,226.432343 342.203400,10.989236 
	C342.203247,7.659488 342.070740,4.329745 342.000000,1.000000 
z"/>
<path fill="#8A1616" opacity="1.000000" stroke="none" 
	d="
M696.584839,997.863770 
	C699.578857,997.909119 702.572937,997.993774 705.566956,997.994324 
	C803.747131,998.012146 901.927246,998.021790 1000.564697,998.519165 
	C1001.015991,1263.773682 1001.009705,1528.541626 1001.009521,1793.309692 
	C1001.009521,1794.808228 1001.093506,1796.306641 1001.138306,1797.805176 
	C1001.092224,1825.771729 1001.022095,1853.738281 1001.005859,1881.704834 
	C1000.982971,1921.159180 1001.000000,1960.613647 1001.000000,2000.533936 
	C906.977356,2001.000000 812.954773,2001.000000 718.379089,2000.538086 
	C717.790283,1997.411621 717.723389,1994.746948 717.723267,1992.082275 
	C717.717834,1891.450806 717.721436,1790.819336 717.703186,1690.187866 
	C717.702698,1687.590698 717.472900,1684.993408 717.331360,1682.000122 
	C714.453491,1682.000122 712.139343,1682.000244 709.825195,1682.000244 
	C597.697754,1682.000244 485.570282,1682.000000 373.442841,1682.000000 
	C363.428070,1682.000000 363.427216,1682.000000 363.426910,1671.923462 
	C363.420105,1447.335449 363.413513,1222.747314 363.841461,998.118286 
	C367.107391,998.051575 369.938690,998.003418 372.770020,998.003296 
	C477.711151,997.999451 582.652283,998.001221 687.593445,997.994385 
	C690.590576,997.994141 693.587708,997.909180 696.584839,997.863770 
z"/>
<path fill="#E19736" opacity="1.000000" stroke="none" 
	d="
M363.406860,998.159241 
	C363.413513,1222.747314 363.420105,1447.335449 363.426910,1671.923462 
	C363.427216,1682.000000 363.428070,1682.000000 373.442841,1682.000000 
	C485.570282,1682.000000 597.697754,1682.000244 709.825195,1682.000244 
	C712.139343,1682.000244 714.453491,1682.000122 717.331360,1682.000122 
	C717.472900,1684.993408 717.702698,1687.590698 717.703186,1690.187866 
	C717.721436,1790.819336 717.717834,1891.450806 717.723267,1992.082275 
	C717.723389,1994.746948 717.790283,1997.411621 717.913025,2000.538086 
	C479.060760,2001.000000 240.121536,2001.000000 1.000000,2001.000000 
	C1.000000,1666.979126 1.000000,1332.958252 1.468657,998.468628 
	C119.929756,998.000000 237.922195,997.998962 355.914642,998.006592 
	C358.412048,998.006775 360.909454,998.106201 363.406860,998.159241 
z"/>
<path fill="#631F64" opacity="1.000000" stroke="none" 
	d="
M363.841461,998.118286 
	C360.909454,998.106201 358.412048,998.006775 355.914642,998.006592 
	C237.922195,997.998962 119.929756,998.000000 1.468657,998.000000 
	C1.000000,665.775269 1.000000,333.550507 1.000000,1.000000 
	C114.354019,1.000000 227.708359,1.000000 341.531342,1.000000 
	C342.070740,4.329745 342.203247,7.659488 342.203400,10.989236 
	C342.213196,226.432343 342.212219,441.875427 342.212250,657.318542 
	C342.212250,672.000000 342.212280,672.000000 356.626862,672.000000 
	C467.097687,672.000122 577.568481,671.999390 688.039307,672.001648 
	C696.598328,672.001831 696.622253,672.011230 696.622009,680.530640 
	C696.619263,786.002625 696.608887,891.474670 696.592651,997.405212 
	C693.587708,997.909180 690.590576,997.994141 687.593445,997.994385 
	C582.652283,998.001221 477.711151,997.999451 372.770020,998.003296 
	C369.938690,998.003418 367.107391,998.051575 363.841461,998.118286 
z"/>
<path fill="#8A1616" opacity="1.000000" stroke="none" 
	d="
M1692.226318,998.150146 
	C1676.174683,998.068787 1660.123169,997.987488 1643.619873,997.404358 
	C1643.167603,667.765686 1643.167236,338.628967 1643.159180,9.492198 
	C1643.159058,6.661464 1643.055420,3.830732 1643.000000,0.999999 
	C1762.295654,1.000000 1881.591309,1.000000 2001.000000,1.000000 
	C2001.000000,333.024078 2001.000000,665.048157 2000.531372,997.536133 
	C1900.447632,998.000000 1800.832642,997.998718 1701.217529,998.006348 
	C1698.220459,998.006592 1695.223389,998.100098 1692.226318,998.150146 
z"/>
<path fill="#8A1616" opacity="1.000000" stroke="none" 
	d="
M1001.166382,302.998779 
	C1001.110962,300.171539 1001.007263,297.344299 1001.007019,294.517059 
	C1000.998596,196.990479 1001.000000,99.463898 1001.000000,1.468657 
	C1069.020874,1.000000 1137.041870,1.000000 1205.549561,1.379774 
	C1212.144775,19.718019 1218.127319,37.720516 1224.390137,55.624935 
	C1234.527588,84.606339 1244.947876,113.488899 1255.069336,142.475830 
	C1268.546143,181.071915 1281.822876,219.737808 1295.238647,258.355316 
	C1304.841431,285.997192 1314.477905,313.627563 1324.196289,341.228912 
	C1334.393311,370.189056 1344.771118,399.085510 1354.951904,428.051270 
	C1369.277222,468.808624 1383.497437,509.602905 1397.755493,550.383911 
	C1407.522705,578.320190 1417.271729,606.262878 1427.039917,634.198914 
	C1436.298218,660.676941 1445.580322,687.146545 1454.835083,713.625793 
	C1469.308838,755.037048 1483.806519,796.439941 1498.219727,837.872192 
	C1506.962280,863.003723 1515.480591,888.213257 1524.252563,913.334290 
	C1534.098267,941.529968 1544.116455,969.665527 1554.059448,997.827271 
	C1551.063477,997.884888 1548.067383,997.991760 1545.071411,997.992920 
	C1459.123535,998.025696 1373.175537,998.047852 1286.287354,998.072815 
	C1280.036621,998.049255 1274.726074,998.011169 1269.415649,998.002197 
	C1235.727051,997.945374 1202.038452,997.895020 1168.276367,997.452881 
	C1167.189697,993.044250 1166.188843,989.022034 1165.161621,985.006531 
	C1156.090698,949.548279 1146.934204,914.111511 1138.044556,878.607910 
	C1136.945435,874.218506 1135.161621,872.890564 1130.656860,872.909180 
	C1087.494385,873.088196 1044.331055,873.015991 1001.167908,873.015747 
	C1001.117859,872.185913 1001.023865,871.356018 1001.023987,870.526184 
	C1001.034485,792.662109 1001.052185,714.798096 1001.575317,636.467651 
	C1026.205688,636.001221 1050.330078,636.001221 1074.712646,636.001221 
	C1074.512573,634.597534 1074.480347,633.770203 1074.270874,632.990479 
	C1070.001587,617.106506 1065.696777,601.232056 1061.430420,585.347290 
	C1054.533813,559.669128 1047.350708,534.062744 1040.856323,508.283142 
	C1033.189453,477.848938 1025.996216,447.292908 1018.873047,416.725525 
	C1016.437805,406.275055 1014.702454,395.653320 1012.886414,385.068817 
	C1010.795288,372.881256 1008.530029,360.697815 1007.143982,348.421844 
	C1005.585205,334.616333 1004.989685,320.703674 1003.766968,306.856018 
	C1003.647644,305.504272 1002.068054,304.281464 1001.166382,302.998779 
z"/>
<path fill="#E19736" opacity="1.000000" stroke="none" 
	d="
M1554.522095,997.878662 
	C1544.116455,969.665527 1534.098267,941.529968 1524.252563,913.334290 
	C1515.480591,888.213257 1506.962280,863.003723 1498.219727,837.872192 
	C1483.806519,796.439941 1469.308838,755.037048 1454.835083,713.625793 
	C1445.580322,687.146545 1436.298218,660.676941 1427.039917,634.198914 
	C1417.271729,606.262878 1407.522705,578.320190 1397.755493,550.383911 
	C1383.497437,509.602905 1369.277222,468.808624 1354.951904,428.051270 
	C1344.771118,399.085510 1334.393311,370.189056 1324.196289,341.228912 
	C1314.477905,313.627563 1304.841431,285.997192 1295.238647,258.355316 
	C1281.822876,219.737808 1268.546143,181.071915 1255.069336,142.475830 
	C1244.947876,113.488899 1234.527588,84.606339 1224.390137,55.624935 
	C1218.127319,37.720516 1212.144775,19.718019 1206.018188,1.379774 
	C1351.354248,1.000000 1496.708496,1.000000 1642.531494,0.999999 
	C1643.055420,3.830732 1643.159058,6.661464 1643.159180,9.492198 
	C1643.167236,338.628967 1643.167603,667.765686 1643.170410,997.358276 
	C1613.776611,997.852783 1584.380615,997.891418 1554.522095,997.878662 
z"/>
<path fill="#631F64" opacity="1.000000" stroke="none" 
	d="
M1692.335205,998.481689 
	C1695.223389,998.100098 1698.220459,998.006592 1701.217529,998.006348 
	C1800.832642,997.998718 1900.447632,998.000000 2000.531372,998.000000 
	C2001.000000,1291.687622 2001.000000,1585.375122 2001.000000,1879.531372 
	C1996.348022,1867.168945 1991.568481,1854.382568 1987.062866,1841.500244 
	C1901.531372,1596.944702 1816.031006,1352.378174 1730.527100,1107.812988 
	C1717.825317,1071.482300 1705.137939,1035.146606 1692.335205,998.481689 
z"/>
<path fill="#631F64" opacity="1.000000" stroke="none" 
	d="
M1319.468628,2001.000000 
	C1328.027222,1964.099731 1337.132324,1927.218140 1345.986572,1890.276367 
	C1347.136475,1885.478027 1349.248047,1883.926636 1354.150513,1883.934082 
	C1441.312500,1884.067871 1528.474487,1884.069458 1615.636475,1883.930908 
	C1620.568848,1883.923096 1622.641724,1885.567261 1623.827881,1890.290161 
	C1633.040894,1926.972778 1642.487793,1963.596558 1651.931152,2000.619385 
	C1541.312378,2001.000000 1430.624878,2001.000000 1319.468628,2001.000000 
z"/>
<path fill="#631F64" opacity="1.000000" stroke="none" 
	d="
M1168.349854,997.842529 
	C1202.038452,997.895020 1235.727051,997.945374 1269.415649,998.002197 
	C1274.726074,998.011169 1280.036621,998.049255 1285.840942,998.109558 
	C1275.495972,1028.756714 1264.710571,1059.387329 1253.809448,1089.976685 
	C1193.261963,1259.873901 1132.685791,1429.761108 1072.120850,1599.652222 
	C1049.360107,1663.498535 1026.604126,1727.346680 1003.838379,1791.191162 
	C1003.111877,1793.228394 1002.299377,1795.234985 1001.332642,1797.530518 
	C1001.093506,1796.306641 1001.009521,1794.808228 1001.009521,1793.309692 
	C1001.009705,1528.541626 1001.015991,1263.773682 1001.033325,998.542236 
	C1001.044617,998.078735 1001.041199,997.980286 1001.483032,997.976440 
	C1034.911377,997.981873 1067.897827,998.012695 1100.884399,997.992859 
	C1123.372925,997.979309 1145.861328,997.895081 1168.349854,997.842529 
z"/>
<path fill="#631F64" opacity="1.000000" stroke="none" 
	d="
M1532.817871,1543.183105 
	C1541.153931,1573.964722 1549.386475,1604.353149 1557.610962,1634.743774 
	C1559.801880,1642.839722 1559.697876,1642.994019 1551.557861,1642.995605 
	C1506.404297,1643.004028 1461.250610,1643.004639 1416.097046,1642.994263 
	C1408.633057,1642.992554 1408.607300,1642.909302 1410.477539,1635.750244 
	C1426.813843,1573.220703 1443.503540,1510.780518 1459.343262,1448.125366 
	C1469.356079,1408.518555 1476.082642,1368.252075 1479.621948,1327.505737 
	C1480.153442,1321.387695 1480.307983,1315.231812 1481.025879,1309.139282 
	C1481.179932,1307.833008 1483.022217,1306.725708 1484.086792,1305.526611 
	C1485.048340,1306.797974 1486.763184,1308.013306 1486.862671,1309.348877 
	C1491.070923,1365.825684 1501.693237,1421.192993 1515.531006,1476.004150 
	C1521.157715,1498.291626 1526.978638,1520.529907 1532.817871,1543.183105 
z"/>
<path fill="#E19736" opacity="1.000000" stroke="none" 
	d="
M1168.276367,997.452881 
	C1145.861328,997.895081 1123.372925,997.979309 1100.884399,997.992859 
	C1067.897827,998.012695 1034.911377,997.981873 1001.456543,997.934937 
	C1001.012329,956.580200 1001.036377,915.263245 1001.114136,873.481018 
	C1044.331055,873.015991 1087.494385,873.088196 1130.656860,872.909180 
	C1135.161621,872.890564 1136.945435,874.218506 1138.044556,878.607910 
	C1146.934204,914.111511 1156.090698,949.548279 1165.161621,985.006531 
	C1166.188843,989.022034 1167.189697,993.044250 1168.276367,997.452881 
z"/>
<path fill="#E19736" opacity="1.000000" stroke="none" 
	d="
M1001.110657,303.464935 
	C1002.068054,304.281464 1003.647644,305.504272 1003.766968,306.856018 
	C1004.989685,320.703674 1005.585205,334.616333 1007.143982,348.421844 
	C1008.530029,360.697815 1010.795288,372.881256 1012.886414,385.068817 
	C1014.702454,395.653320 1016.437805,406.275055 1018.873047,416.725525 
	C1025.996216,447.292908 1033.189453,477.848938 1040.856323,508.283142 
	C1047.350708,534.062744 1054.533813,559.669128 1061.430420,585.347290 
	C1065.696777,601.232056 1070.001587,617.106506 1074.270874,632.990479 
	C1074.480347,633.770203 1074.512573,634.597534 1074.712646,636.001221 
	C1050.330078,636.001221 1026.205688,636.001221 1001.623779,636.001221 
	C1001.114014,635.171448 1001.015686,634.341614 1001.015747,633.511841 
	C1001.024170,523.651611 1001.039734,413.791351 1001.110657,303.464935 
z"/>
</svg>